<svg width="310" height="112" viewBox="0 0 310 112" fill="none" xmlns="http://www.w3.org/2000/svg">
<rect width="310" height="112" rx="8" fill="url(#paint0_linear_2536_3236)"/>
<mask id="mask0_2536_3236" style="mask-type:alpha" maskUnits="userSpaceOnUse" x="0" y="0" width="310" height="112">
<rect width="310" height="112" rx="12" fill="#ED713C"/>
</mask>
<g mask="url(#mask0_2536_3236)">
<g opacity="0.1">
<ellipse cx="24.1106" cy="131.967" rx="157.952" ry="70.0109" fill="white"/>
<path d="M24.1104 73.9561C66.4545 73.9561 104.214 81.5877 130.938 93.4326C144.315 99.362 154.396 106.112 160.969 113C167.484 119.827 170.062 126.216 170.062 131.967C170.062 137.717 167.484 144.106 160.969 150.934C154.396 157.822 144.315 164.572 130.938 170.501C104.214 182.346 66.4545 189.978 24.1104 189.978C-18.2337 189.978 -55.9924 182.346 -82.7158 170.501C-96.0932 164.572 -106.175 157.822 -112.748 150.934C-119.263 144.107 -121.842 137.717 -121.842 131.967C-121.842 126.216 -119.263 119.827 -112.748 113C-106.175 106.112 -96.0932 99.362 -82.7158 93.4326C-55.9924 81.5877 -18.2337 73.9561 24.1104 73.9561Z" stroke="black" stroke-opacity="0.5" stroke-width="24"/>
</g>
<g opacity="0.08">
<ellipse cx="285.888" cy="-17.9667" rx="157.952" ry="70.0109" fill="white"/>
<path d="M285.888 -75.9775C328.232 -75.9775 365.991 -68.3459 392.715 -56.501C406.092 -50.5716 416.173 -43.8219 422.746 -36.9336C429.261 -30.1064 431.84 -23.7174 431.84 -17.9668C431.84 -12.2162 429.261 -5.82716 422.746 1C416.173 7.88832 406.092 14.6381 392.715 20.5674C365.991 32.4123 328.232 40.0439 285.888 40.0439C243.544 40.0439 205.785 32.4123 179.062 20.5674C165.684 14.638 155.603 7.8884 149.029 1C142.515 -5.82708 139.936 -12.2163 139.936 -17.9668C139.936 -23.7173 142.515 -30.1065 149.029 -36.9336C155.603 -43.822 165.684 -50.5716 179.062 -56.501C205.785 -68.3459 243.544 -75.9775 285.888 -75.9775Z" stroke="black" stroke-opacity="0.5" stroke-width="24"/>
</g>
</g>
<defs>
<linearGradient id="paint0_linear_2536_3236" x1="310" y1="112" x2="1.32497" y2="-3.53977" gradientUnits="userSpaceOnUse">
<stop stop-color="#34C759"/>
<stop offset="1" stop-color="#2AB479"/>
</linearGradient>
</defs>
</svg>
