<svg width="547" height="640" viewBox="0 0 547 640" fill="none" xmlns="http://www.w3.org/2000/svg">
<g opacity="0.9">
<path d="M365.065 325.547C390.823 321.864 416.613 318.458 442.294 314.312C448.617 313.295 449.02 315.36 448.927 320.415C448.756 328.275 445.982 335.426 443.983 342.824C433.583 365.263 414.644 376.437 391.443 381.569C372.334 385.792 353.116 389.444 333.929 393.282C331.387 393.79 328.799 393.791 328.008 397.089C324.056 413.687 320.011 430.255 315.749 447.855C323.979 446.514 331.278 445.312 338.594 444.125C363.655 440.272 388.731 436.558 413.761 432.474C420.084 431.441 423.68 432.089 422.332 439.656C421.138 446.406 420.286 453.218 419.278 459.999C413.064 477.877 399.828 488.48 382.578 494.814C377.278 496.772 371.9 498.775 366.398 499.9C329.791 507.344 293.137 514.557 256.499 521.846C255.848 522.139 255.212 522.432 254.561 522.74L254.484 522.694C249.819 522.524 245.433 523.942 240.969 524.929C238.706 525.268 236.428 525.607 233.189 526.085C240.783 494.444 248.253 463.297 255.724 432.15C257.646 424.46 259.118 416.631 261.644 409.141C263.783 402.837 261.505 402.205 256.127 403.007C238.303 405.704 220.465 408.308 202.595 410.713C197.93 411.344 195.574 413.117 194.428 417.971C187.918 445.343 180.959 472.621 174.264 499.962C170.823 513.986 158.921 521.97 150.861 532.696C150.257 533.498 148.537 533.559 147.297 533.775C128.761 536.888 110.209 539.909 91.6886 543.084C68.6269 547.044 45.5963 551.129 22.5502 555.166C14.8785 554.35 7.82669 559.189 0 557.956C4.55653 538.491 9.42303 519.427 13.3131 500.162C14.522 494.152 17.8387 493.119 22.5967 492.24C40.7608 488.865 58.8939 485.321 77.0271 481.838C77.5075 481.714 77.9725 481.591 78.4529 481.483C86.4036 480.99 94.1373 479.248 101.809 477.26C102.305 477.137 102.785 476.998 103.281 476.875C120.299 474.532 116.982 477.707 120.624 458.504C121.817 457.056 121.74 455.36 121.6 453.65C123.646 445.204 125.661 436.758 127.753 428.328C128.823 423.982 126.668 423.689 123.212 424.336C97.392 429.099 71.5716 433.784 45.7358 438.484C45.0539 438.592 44.3719 438.716 43.69 438.823L43.597 438.746C39.18 439.471 34.7629 440.318 30.3149 440.873C28.1141 441.151 25.2314 442.985 24.1465 439.116C24.4565 438.346 24.751 437.575 25.0609 436.82C28.92 418.973 33.3836 401.219 36.2508 383.218C37.1652 377.439 39.7379 376.653 43.845 375.959C69.6343 371.567 95.4237 367.221 121.213 362.844C123.491 362.459 125.754 361.626 128.017 361.657C141.159 361.796 147.188 355.693 149.947 342.562C157.34 307.516 166.22 272.762 174.652 237.932C181.378 210.114 188.321 182.342 195.125 154.555C195.729 152.073 196.117 149.546 196.613 147.034C198.767 138.665 200.735 130.235 203.153 121.928C204.61 116.904 203.2 116.519 198.488 117.351C164.128 123.408 129.722 129.156 95.3307 135.013C88.4184 136.353 81.5061 137.679 73.8964 139.143C73.6329 130.821 76.8411 123.346 78.5304 115.64C81.1341 103.711 83.8464 91.8136 86.3416 79.8695C87.38 74.907 89.4258 72.287 95.1757 71.501C141.051 65.2747 186.864 58.6168 232.693 52.0976C262.218 47.8903 291.757 43.6983 321.282 39.5371C322.243 39.3984 323.25 39.6296 324.49 39.6912C322.382 48.892 320.352 57.7383 318.337 66.5692C317.469 66.9083 316.958 67.4785 317.19 68.4803C315.021 77.4191 312.634 86.327 310.774 95.3429C309.844 99.8585 307.488 101.693 303.087 102.186C293.881 103.234 284.737 104.96 275.5 105.715C269.331 106.224 267.084 109.09 265.767 114.87C252.701 171.723 239.342 228.515 226.06 285.323C221.86 303.262 217.846 321.248 213.351 339.11C211.755 345.444 213.351 347.293 219.674 345.783C224.649 344.596 229.733 343.81 234.77 342.855C248.579 341.961 262.109 339.064 275.763 337.06C277.483 336.813 279.343 336.706 279.824 334.348C282.675 320.708 287.65 307.516 288.859 293.522C292.021 285.107 293.757 276.338 295.477 267.569C301.645 248.967 305.257 229.687 309.999 210.73C316.322 185.501 322.057 160.149 328.055 134.843C335.525 109.737 340.701 84.0769 346.56 58.586C349.737 44.8079 354.387 31.3381 355.874 17.1747C356.2 14.1386 358.416 12.2584 361.531 11.7498C363.794 11.3799 366.212 11.6573 368.072 9.91582C385.507 8.11265 402.509 3.84361 419.65 0.468451C426.532 -0.887779 428.051 0.545509 425.664 6.81807C425.478 7.28042 425.54 7.83524 425.447 8.34383C422.161 26.5296 422.13 26.3139 441.007 23.0158C469.168 18.084 497.39 13.5684 525.551 8.66748C530.789 7.75819 531.828 9.40724 531.068 14.2311C529.906 21.5671 529.286 28.9801 528.449 36.3469C523.676 62.5622 518.298 88.6388 509.216 113.822C499.049 142.01 485.333 167.809 460.83 186.534C436.28 205.29 408.306 215.693 377.82 219.438C371.202 220.255 368.103 222.397 366.708 229.07C362.787 247.873 358.153 266.536 353.751 285.246C350.388 299.533 346.947 313.819 343.352 328.892C351.395 327.643 358.23 326.58 365.08 325.517L365.065 325.547ZM415.931 362.705C417.217 363.429 418.085 362.89 418.643 361.719C418.689 361.611 418.194 361.226 417.961 360.979C417.357 361.595 416.737 362.212 416.132 362.828C415.822 363.06 415.528 363.291 415.218 363.522L416.101 363.691C416.055 363.368 415.993 363.029 415.946 362.705H415.931ZM394.636 478.617C395.426 477.954 396.201 477.291 396.992 476.628C406.027 468.676 410.894 458.335 413.947 447.023C414.443 445.189 416.458 442.245 412.94 441.305C409.437 440.38 407.825 442.769 407.345 445.959C405.717 456.547 401.145 465.948 395.581 474.949C394.791 475.796 393.985 476.644 393.195 477.491C392.761 477.969 392.311 478.447 391.877 478.909C391.087 479.695 390.296 480.497 389.537 481.298C389.335 481.637 389.149 481.976 388.948 482.315C389.242 482.254 389.521 482.177 389.816 482.115C389.645 481.807 389.475 481.483 389.289 481.175C391.009 482.285 392.032 481.344 392.916 479.973C393.489 479.51 394.047 479.063 394.62 478.601L394.636 478.617ZM250.005 165.435C253.693 147.989 257.46 130.543 260.947 113.051C261.288 111.294 263.643 108.058 260.172 107.302C256.855 106.578 255.383 109.198 254.995 112.465C252.872 130.189 250.625 147.897 248.439 165.605C246.285 170.49 246.564 175.684 246.735 180.909C247.82 175.761 248.92 170.614 250.005 165.451V165.435ZM180.339 462.85C183.765 447.146 187.19 431.457 190.568 415.737C190.909 414.18 192.413 411.699 189.84 411.36C187.717 411.082 184.338 410.743 183.548 414.119C182.85 417.093 182.525 420.16 182.184 423.211C180.68 436.404 179.239 449.596 177.782 462.789C177.302 467.967 175.426 473.053 176.682 480.589C178.201 473.253 179.27 468.059 180.355 462.85H180.339ZM409.855 151.642C436.497 146.186 453.716 129.803 464.053 105.422C468.78 97.331 470.439 88.2227 472.856 79.3455C473.988 75.1844 472.763 74.5987 468.734 75.3385C449.237 78.9448 429.678 82.3508 410.119 85.6181C405.779 86.3425 403.532 88.1764 402.509 92.5842C399.084 107.302 395.256 121.928 391.598 136.585C386.918 155.294 388.979 157.205 408.445 152.243C408.941 152.12 409.39 151.842 409.871 151.642H409.855ZM185.237 66.8158C185.144 66.3381 185.051 65.8449 184.973 65.3671C169.708 67.6326 154.442 69.8673 139.191 72.1791C127.474 73.9514 115.773 75.8933 104.041 77.5732C101.081 77.9893 100.011 79.4997 100.073 82.1505C100.166 85.988 102.956 84.3081 104.552 83.969C131.473 78.313 158.363 72.549 185.252 66.8158H185.237ZM483.07 22.8C483.178 23.1853 483.271 23.5706 483.38 23.9559C492.105 23.5244 500.862 23.4935 509.526 22.5226C515.942 21.7982 517.538 24.1254 516.996 30.0127C516.515 35.1602 516.903 40.4002 516.903 45.5939C519.724 37.4874 521.32 29.3037 523.18 21.1664C524.172 16.8665 523.025 15.7569 518.608 16.6045C506.798 18.87 494.926 20.7503 483.07 22.7846V22.8ZM419.542 360.285C431.631 351.778 437.474 339.557 440.713 325.779C441.069 324.253 441.038 322.619 438.713 322.665C436.544 322.696 434.389 323.082 433.94 325.578C431.662 338.17 426.702 349.636 419.542 360.285ZM65.9767 493.597C52.7566 492.857 40.1564 495.816 27.4477 498.02C24.9214 498.451 24.5185 500.902 24.4565 502.828C24.379 505.34 26.5178 504.524 27.8041 504.185C40.5438 500.701 53.2525 497.141 65.9767 493.597ZM87.907 378.194C75.1363 376.915 63.063 380.136 50.8503 382.139C47.9366 382.617 48.0141 385.776 47.7661 389.198C61.5907 385.407 74.7488 381.8 87.907 378.194Z" fill="#2AB479"/>
<path d="M400.401 520.154C401.548 529.848 398.076 538.648 395.023 547.526C381.245 573.063 359.175 587.165 331.185 592.682C298.096 599.216 264.914 605.35 231.778 611.654C228.121 612.363 224.262 612.101 220.837 613.935C211.909 615.306 209.771 612.347 211.677 602.7C215.118 585.284 222.2 570.042 236.397 558.668C240.752 556.773 243.883 552.735 248.765 551.764C249.261 551.887 249.788 552.211 250.237 552.118C294.129 543.519 338.02 534.888 381.911 526.257C380.501 540.452 373.62 551.949 364.057 562.136C363.499 562.814 362.957 563.477 362.399 564.155C363.732 565.172 364.445 564.309 365.08 563.261C379.06 553.922 387.01 540.868 389.382 524.362C393.055 522.959 396.728 521.557 400.386 520.139L400.401 520.154Z" fill="#2AB479"/>
<path d="M22.5675 555.211C45.6137 551.174 68.6443 547.09 91.7059 543.129C110.227 539.954 128.778 536.933 147.314 533.82C148.554 533.604 150.274 533.543 150.879 532.741C158.938 522.015 170.841 514.047 174.281 500.007C180.977 472.666 187.936 445.403 194.445 418.016C195.592 413.162 197.948 411.389 202.613 410.758C220.482 408.353 238.321 405.749 256.144 403.052C261.522 402.235 263.785 402.882 261.661 409.186C259.135 416.676 257.663 424.505 255.741 432.195C243.497 433.783 231.254 435.478 218.979 436.942C213.523 437.589 211.152 440.595 209.912 445.742C204.379 468.675 197.855 491.392 193.05 514.463C190.043 528.904 182.868 540.17 173.661 551.235C167.741 558.355 161.015 560.405 152.63 561.777C119.092 567.294 85.6615 573.428 52.154 579.146C42.018 580.872 31.7736 581.905 21.6066 583.477C17.7475 584.078 16.2597 583.292 17.2516 579.146C19.1579 571.193 20.8162 563.179 22.5675 555.181V555.211Z" fill="#136643"/>
<path d="M234.755 342.898C229.718 343.853 224.635 344.639 219.66 345.826C213.352 347.336 211.755 345.487 213.336 339.153C217.831 321.29 221.845 303.305 226.045 285.366C239.327 228.558 252.687 171.766 265.752 114.912C267.085 109.133 269.317 106.266 275.485 105.758C284.706 105.003 293.85 103.277 303.072 102.229C307.474 101.72 309.829 99.9014 310.759 95.3858C312.619 86.3699 315.006 77.4774 317.176 68.5386C317.61 68.5078 318.044 68.4461 318.462 68.3536C323.762 67.4752 329.047 66.4888 334.363 65.7645C337.448 65.3484 340.594 65.934 339.524 70.0798C334.689 88.805 329.636 107.469 324.599 126.132C324.351 127.057 323.468 127.812 322.895 128.66C307.908 123.651 283.234 130.971 273.78 143.239C268.201 150.483 269.115 155.738 276.833 160.916C276.012 167.312 272.804 173.338 273.734 180.027L273.672 179.487C273.222 180.104 272.757 180.736 272.308 181.352C253.462 199.815 245.309 222.717 244.194 248.486C243.496 264.637 244.271 280.773 245.402 296.894C241.264 312.105 237.514 327.394 234.755 342.929V342.898Z" fill="#136643"/>
<path d="M95.3305 135.025C129.722 129.169 164.128 123.42 198.488 117.363C203.199 116.531 204.61 116.932 203.153 121.941C200.735 130.248 198.767 138.678 196.613 147.046C170.746 151.362 144.863 155.677 118.981 160.008C111.371 161.287 103.777 162.689 96.1519 163.891C91.1305 164.677 88.9142 163.059 90.3865 157.495C92.3393 150.082 93.7032 142.515 95.315 135.025H95.3305Z" fill="#136643"/>
<path d="M45.7524 438.518C71.5727 433.817 97.4086 429.132 123.229 424.37C126.685 423.738 128.855 424.015 127.77 428.361C125.678 436.791 123.663 445.237 121.617 453.683C120.067 454.176 118.517 454.669 116.968 455.162C94.3864 458.984 71.8052 462.76 49.255 466.675C39.7855 468.324 39.615 468.016 41.6608 458.476C43.0402 452.034 45.3184 445.576 43.6136 438.795L43.7066 438.872C44.3885 438.749 45.0704 438.641 45.7524 438.533V438.518Z" fill="#136643"/>
<path d="M273.734 180.001C272.804 173.312 276.012 167.286 276.834 160.89C279.654 160.983 282.475 161.168 285.296 161.137C303.212 160.875 319.113 150.303 325.034 134.783C326.041 134.814 327.033 134.86 328.04 134.891C322.042 160.197 316.308 185.565 309.985 210.778C305.227 229.75 301.631 249.015 295.463 267.616C295.37 266.599 295.106 265.567 295.215 264.58C298.268 234.605 295.044 204.629 295.308 174.653C295.354 168.843 293.99 166.87 288.581 170.369C283.622 173.574 278.678 176.795 273.718 180.001H273.734Z" fill="white"/>
<path d="M325.031 134.767C319.111 150.286 303.194 160.859 285.293 161.121C282.473 161.167 279.652 160.967 276.831 160.874C269.113 155.696 268.199 150.44 273.778 143.197C283.232 130.929 307.906 123.609 322.893 128.617C324.241 130.436 324.907 132.501 325.031 134.751V134.767ZM317.468 138.62C315.314 133.426 310.881 134.289 306.325 135.522C310.23 136.031 313.888 137.217 317.468 138.62Z" fill="#A8639D"/>
<path d="M248.779 551.761C243.912 552.732 240.766 556.785 236.411 558.665C235.714 550.343 239.34 542.791 240.611 534.824C241.123 531.602 240.875 528.258 240.983 524.96C245.447 523.974 249.833 522.54 254.498 522.725C254.823 532.835 250.112 541.975 248.779 551.761Z" fill="#136643"/>
<path d="M116.967 455.161C118.517 454.668 120.067 454.174 121.617 453.681C121.756 455.392 121.818 457.087 120.64 458.536C119.416 457.411 118.192 456.286 116.967 455.161Z" fill="#136643"/>
<path d="M25.0606 436.85C24.7507 437.62 24.4562 438.375 24.1462 439.146C24.4407 438.375 24.7507 437.605 25.0606 436.85Z" fill="#136643"/>
<path d="M78.4686 481.528C77.9881 481.651 77.5232 481.774 77.0427 481.882C77.4922 481.682 77.9726 481.574 78.4686 481.528Z" fill="#136643"/>
<path d="M318.461 68.3235C318.042 68.416 317.608 68.4776 317.174 68.5084C316.957 67.5067 317.453 66.9364 318.321 66.5974C318.368 67.1676 318.414 67.7533 318.461 68.3235Z" fill="#136643"/>
<path d="M103.297 476.91C102.801 477.034 102.321 477.172 101.825 477.296C102.29 477.08 102.786 476.957 103.297 476.91Z" fill="#136643"/>
<path d="M365.063 325.547C358.213 326.61 351.378 327.674 343.335 328.922C346.93 313.849 350.371 299.578 353.734 285.276C358.136 266.566 362.77 247.903 366.691 229.1C368.086 222.412 371.185 220.285 377.803 219.468C408.289 215.723 436.263 205.32 460.813 186.564C485.316 167.839 499.047 142.04 509.199 113.852C518.281 88.669 523.659 62.6078 528.432 36.3771C531.516 36.1305 534.632 36.0842 537.669 35.6065C546.891 34.1424 547.309 34.127 546.224 42.9579C540.908 86.4035 532.028 128.878 512.376 168.579C496.072 201.513 469.275 222.242 435.69 235.25C421.726 240.659 407.281 244.574 392.279 245.945C386.761 246.454 383.832 248.766 382.577 254.684C378.47 273.979 373.681 293.151 369.047 312.339C367.962 316.808 366.412 321.17 365.079 325.578L365.063 325.547Z" fill="#136643"/>
<path d="M231.778 611.649C264.914 605.346 298.096 599.212 331.185 592.677C359.175 587.16 381.245 573.043 395.023 547.521C399.874 546.951 404.833 546.828 409.545 545.702C415.295 544.315 416.411 546.905 416.101 551.667C415.233 564.921 410.304 576.788 401.966 586.836C388.064 603.573 370.225 614.454 348.62 618.584C311.672 625.628 274.693 632.47 237.729 639.39C229.67 640.901 228.74 640.007 228.446 632.085C228.182 625.011 230.368 618.415 231.763 611.665L231.778 611.649Z" fill="#136643"/>
<path d="M248.781 551.761C250.114 541.975 254.81 532.836 254.5 522.725C254.5 522.725 254.578 522.772 254.593 522.772C255.244 522.479 255.88 522.186 256.53 521.878C293.169 514.588 329.822 507.375 366.43 499.932C371.947 498.807 377.31 496.788 382.61 494.846C399.86 488.512 413.095 477.893 419.31 460.031C421.62 459.815 423.944 459.722 426.223 459.353C437.567 457.442 438.699 458.613 437.676 470.187C435.553 494.491 423.51 511.382 400.418 520.167C396.745 521.57 393.071 522.972 389.398 524.39C386.686 524.19 384.175 524.683 381.928 526.286C338.037 534.916 294.145 543.547 250.254 552.146C249.804 552.239 249.277 551.915 248.781 551.792V551.761Z" fill="#136643"/>
<path d="M338.61 444.136C331.295 445.323 323.995 446.525 315.765 447.866C320.027 430.265 324.072 413.683 328.024 397.1C328.815 393.801 331.403 393.801 333.945 393.293C353.132 389.44 372.365 385.787 391.459 381.58C414.66 376.463 433.584 365.274 443.999 342.835C448.323 342.157 452.725 341.818 456.94 340.693C462.706 339.167 464.162 341.432 464.255 346.796C464.658 370.206 446.897 394.094 422.177 403.172C403.688 409.968 384.253 413.128 364.988 415.933C349.381 418.214 339.85 423.793 339.54 440.437C339.524 441.686 338.935 442.919 338.61 444.151V444.136Z" fill="#136643"/>
<path d="M273.734 179.999C278.678 176.793 283.637 173.572 288.597 170.367C294.021 166.868 295.385 168.825 295.323 174.651C295.044 204.627 298.268 234.603 295.23 264.578C295.122 265.58 295.385 266.613 295.478 267.614C293.758 276.384 292.022 285.153 288.86 293.568C286.272 295.571 285.838 298.792 284.474 301.459C278.43 313.326 270.278 323.328 258.778 330.355C251.261 334.948 250.812 334.809 249.479 326.456C247.914 316.624 246.736 306.745 245.387 296.881C244.256 280.761 243.466 264.625 244.178 248.473C245.294 222.705 253.462 199.788 272.293 181.34C272.742 180.723 273.207 180.091 273.656 179.475L273.718 180.014L273.734 179.999ZM262.715 313.48C286.939 288.205 293.975 230.811 286.257 197.615C284.815 220.193 282.676 242.108 278.306 263.777C274.85 280.93 268.712 297.205 262.823 313.588C262.668 313.742 262.513 313.911 262.358 314.065C262.482 313.865 262.606 313.68 262.73 313.48H262.715Z" fill="#A8639D"/>
<path d="M409.856 151.646C409.391 151.846 408.926 152.124 408.43 152.247C388.964 157.21 386.902 155.299 391.583 136.589C395.241 121.932 399.069 107.307 402.494 92.5884C403.517 88.1652 405.764 86.3467 410.104 85.6223C429.678 82.355 449.222 78.949 468.719 75.3427C472.748 74.6029 473.972 75.1886 472.841 79.3497C470.423 88.2269 468.765 97.3352 464.038 105.426C451.097 107.584 438.171 109.819 425.215 111.822C420.519 112.547 418.922 115.598 417.93 119.59C415.28 130.285 412.552 140.95 409.856 151.631V151.646Z" fill="#136643"/>
<path d="M409.854 151.638C412.551 140.958 415.279 130.293 417.929 119.597C418.921 115.606 420.517 112.554 425.213 111.83C438.17 109.826 451.096 107.576 464.037 105.434C453.715 129.815 436.481 146.182 409.839 151.654L409.854 151.638Z" fill="white"/>
<path d="M245.385 296.863C246.734 306.727 247.911 316.621 249.477 326.438C250.81 334.791 251.259 334.93 258.776 330.338C270.276 323.31 278.412 313.308 284.472 301.441C285.836 298.774 286.285 295.553 288.858 293.55C287.649 307.559 282.674 320.736 279.823 334.375C279.327 336.733 277.482 336.826 275.762 337.088C262.108 339.091 248.578 341.989 234.769 342.883C237.528 327.363 241.278 312.059 245.416 296.848L245.385 296.863Z" fill="white"/>
<path d="M185.237 66.8126C158.348 72.5458 131.442 78.3098 104.537 83.9659C102.941 84.3049 100.151 85.9848 100.058 82.1473C99.9962 79.4811 101.066 77.9861 104.026 77.57C115.758 75.8901 127.459 73.9483 139.176 72.1759C154.427 69.8642 169.693 67.6295 184.958 65.3639C185.051 65.8417 185.144 66.3349 185.222 66.8126H185.237Z" fill="white"/>
<path d="M248.426 165.593C250.626 147.885 252.858 130.177 254.981 112.454C255.369 109.202 256.841 106.567 260.158 107.291C263.63 108.061 261.289 111.298 260.933 113.039C257.461 130.532 253.68 147.978 249.991 165.424C249.464 165.47 248.937 165.532 248.41 165.578L248.426 165.593Z" fill="white"/>
<path d="M483.07 22.7988C494.926 20.7645 506.798 18.8688 518.608 16.6187C523.025 15.7711 524.172 16.8807 523.18 21.1806C521.305 29.3026 519.724 37.5016 516.903 45.6081C516.903 40.4144 516.531 35.1744 516.996 30.0269C517.539 24.1396 515.942 21.8125 509.526 22.5368C500.862 23.5078 492.106 23.5386 483.38 23.9701C483.272 23.5848 483.179 23.1995 483.07 22.8142V22.7988Z" fill="white"/>
<path d="M419.543 360.286C426.703 349.637 431.663 338.17 433.941 325.579C434.39 323.082 436.545 322.697 438.714 322.666C441.055 322.635 441.086 324.253 440.714 325.779C437.475 339.557 431.616 351.763 419.543 360.286Z" fill="white"/>
<path d="M395.598 474.964C401.162 465.964 405.734 456.563 407.361 445.975C407.857 442.785 409.469 440.396 412.956 441.321C416.474 442.261 414.459 445.204 413.963 447.038C410.895 458.335 406.044 468.692 397.008 476.644C396.543 476.089 396.078 475.535 395.598 474.964Z" fill="white"/>
<path d="M65.9781 493.601C53.2539 497.146 40.5452 500.706 27.8055 504.189C26.5191 504.543 24.3804 505.345 24.4579 502.832C24.5199 500.906 24.9228 498.456 27.4491 498.024C40.1422 495.82 52.7425 492.846 65.9781 493.601Z" fill="white"/>
<path d="M87.9089 378.212C74.7508 381.819 61.5771 385.425 47.7681 389.216C48.016 385.78 47.9385 382.636 50.8522 382.158C63.065 380.154 75.1383 376.949 87.9089 378.212Z" fill="white"/>
<path d="M177.782 462.792C179.254 449.599 180.696 436.407 182.184 423.214C182.525 420.178 182.85 417.096 183.547 414.121C184.338 410.746 187.716 411.085 189.84 411.363C192.412 411.686 190.909 414.183 190.568 415.74C187.19 431.444 183.749 447.149 180.339 462.853C179.487 462.838 178.634 462.822 177.782 462.792Z" fill="white"/>
<path d="M177.783 462.787C178.636 462.803 179.488 462.818 180.34 462.849C179.271 468.058 178.186 473.252 176.667 480.588C175.427 473.067 177.303 467.981 177.768 462.787H177.783Z" fill="white"/>
<path d="M248.425 165.588C248.952 165.542 249.479 165.48 250.006 165.434C248.921 170.581 247.821 175.729 246.736 180.892C246.565 175.683 246.286 170.473 248.441 165.588H248.425Z" fill="white"/>
<path d="M392.946 479.987C392.063 481.358 391.025 482.298 389.32 481.189L389.537 481.296C390.327 480.51 391.118 479.709 391.908 478.923C392.249 479.293 392.59 479.647 392.962 479.987H392.946Z" fill="white"/>
<path d="M393.209 477.508C394 476.661 394.806 475.813 395.596 474.965C396.061 475.52 396.526 476.075 397.006 476.645C396.216 477.308 395.441 477.971 394.651 478.633C394.17 478.264 393.69 477.894 393.209 477.524V477.508Z" fill="white"/>
<path d="M416.131 362.83C416.736 362.214 417.356 361.597 417.96 360.981C418.208 361.227 418.704 361.613 418.642 361.721C418.084 362.892 417.216 363.431 415.93 362.707L416.116 362.83H416.131Z" fill="#2AB479"/>
<path d="M394.651 478.619C394.078 479.082 393.52 479.529 392.946 479.991C392.574 479.652 392.218 479.297 391.893 478.927C392.327 478.45 392.776 477.972 393.21 477.51C393.69 477.879 394.171 478.249 394.651 478.619Z" fill="white"/>
<path d="M415.947 362.717C415.993 363.041 416.055 363.38 416.102 363.704L415.218 363.534C415.528 363.303 415.823 363.072 416.133 362.841L415.947 362.717Z" fill="#2AB479"/>
<path d="M256.5 521.892C255.849 522.185 255.213 522.478 254.562 522.786C255.213 522.493 255.849 522.2 256.5 521.892Z" fill="#136643"/>
<path d="M381.928 526.27C384.176 524.668 386.686 524.174 389.399 524.375C387.027 540.881 379.077 553.934 365.097 563.274C364.756 562.889 364.415 562.519 364.074 562.149C373.637 551.962 380.518 540.465 381.928 526.27Z" fill="white"/>
<path d="M365.099 563.27C364.463 564.318 363.75 565.166 362.417 564.164C362.975 563.486 363.518 562.823 364.076 562.145C364.432 562.515 364.773 562.885 365.099 563.27Z" fill="white"/>
<path d="M273.655 179.463C273.206 180.079 272.741 180.711 272.291 181.327C272.741 180.695 273.206 180.079 273.655 179.463Z" fill="#136643"/>
<path d="M317.486 138.615C313.906 137.213 310.248 136.026 306.342 135.517C310.914 134.284 315.331 133.406 317.486 138.615Z" fill="white"/>
<path d="M262.824 313.585C268.713 297.203 274.851 280.928 278.307 263.775C282.677 242.09 284.832 220.175 286.257 197.612C293.976 230.809 286.939 288.202 262.715 313.477L262.824 313.585Z" fill="white"/>
<path d="M262.713 313.463L262.341 314.049C262.496 313.895 262.651 313.725 262.806 313.571L262.698 313.463H262.713Z" fill="#2AB479"/>
</g>
</svg>
