<svg width="47" height="36" viewBox="0 0 47 36" fill="none" xmlns="http://www.w3.org/2000/svg">
<path d="M16.9902 2.97418H29.5824V24.8367H16.9902V2.97418Z" fill="#FF5F00"/>
<path d="M8.47571 35.8409V33.5234C8.47571 32.6348 7.91594 32.0556 6.95646 32.0556C6.47681 32.0556 5.9571 32.2101 5.59727 32.7123C5.31757 32.2873 4.91786 32.0556 4.31821 32.0556C3.91832 32.0556 3.5188 32.1714 3.19885 32.5963V32.1328H2.35938V35.8409H3.19885V33.7937C3.19885 33.1372 3.55868 32.828 4.11845 32.828C4.67786 32.828 4.95793 33.1757 4.95793 33.7937V35.8409H5.7974V33.7937C5.7974 33.1372 6.19693 32.828 6.71664 32.828C7.27641 32.828 7.55611 33.1757 7.55611 33.7937V35.8409H8.47571ZM20.9078 32.1328H19.5488V31.0127H18.7093V32.1328H17.9498V32.8666H18.7091V34.5663C18.7091 35.4162 19.0689 35.9182 20.0284 35.9182C20.3883 35.9182 20.7878 35.8024 21.0678 35.6479L20.8278 34.9525C20.588 35.107 20.3083 35.1457 20.1084 35.1457C19.7087 35.1457 19.5488 34.914 19.5488 34.5276V32.8666H20.9078V32.1328ZM28.0235 32.0554C27.5438 32.0554 27.2241 32.2873 27.0241 32.5963V32.1328H26.1846V35.8409H27.0241V33.7551C27.0241 33.1372 27.3038 32.7895 27.8235 32.7895C27.9834 32.7895 28.1834 32.8282 28.3432 32.8668L28.5831 32.0943C28.4232 32.0556 28.1834 32.0556 28.0235 32.0556V32.0554ZM17.2702 32.4418C16.8703 32.1714 16.3107 32.0556 15.711 32.0556C14.7517 32.0556 14.1122 32.5191 14.1122 33.253C14.1122 33.8711 14.5919 34.2186 15.4313 34.3346L15.831 34.3733C16.2708 34.4503 16.5106 34.5663 16.5106 34.7595C16.5106 35.0298 16.1909 35.223 15.6311 35.223C15.0715 35.223 14.6317 35.0298 14.3519 34.8367L13.9522 35.4547C14.3919 35.7637 14.9916 35.9182 15.591 35.9182C16.7104 35.9182 17.3501 35.4162 17.3501 34.7208C17.3501 34.0641 16.8304 33.7164 16.0308 33.6007L15.6311 33.562C15.2713 33.5232 14.9916 33.4462 14.9916 33.2144C14.9916 32.944 15.2713 32.7895 15.711 32.7895C16.1909 32.7895 16.6705 32.9825 16.9103 33.0985L17.2702 32.4418ZM39.5764 32.0556C39.0965 32.0556 38.7768 32.2873 38.5768 32.5963V32.1328H37.7374V35.8409H38.5768V33.7551C38.5768 33.1372 38.8567 32.7895 39.3762 32.7895C39.5363 32.7895 39.7363 32.8282 39.8961 32.8668L40.136 32.0943C39.9761 32.0556 39.7363 32.0556 39.5764 32.0556ZM28.863 33.9869C28.863 35.107 29.6624 35.9182 30.9017 35.9182C31.4613 35.9182 31.861 35.8024 32.2607 35.4934L31.861 34.8367C31.5413 35.0685 31.2215 35.1843 30.8617 35.1843C30.1821 35.1843 29.7024 34.7208 29.7024 33.9869C29.7024 33.2917 30.1821 32.828 30.8617 32.7895C31.2215 32.7895 31.5413 32.9053 31.861 33.1372L32.2607 32.4805C31.861 32.1714 31.4613 32.0556 30.9017 32.0556C29.6624 32.0556 28.863 32.8668 28.863 33.9869ZM36.6182 33.9869V32.1328H35.7787V32.5963C35.4988 32.2488 35.0991 32.0556 34.5794 32.0556C33.5001 32.0556 32.6606 32.8668 32.6606 33.9869C32.6606 35.107 33.5001 35.9182 34.5794 35.9182C35.139 35.9182 35.5389 35.7251 35.7787 35.3774V35.8409H36.6182V33.9869ZM33.54 33.9869C33.54 33.3302 33.9797 32.7895 34.6992 32.7895C35.3788 32.7895 35.8586 33.2917 35.8586 33.9869C35.8586 34.6435 35.3788 35.1843 34.6992 35.1843C33.9797 35.1455 33.54 34.6435 33.54 33.9869ZM23.5063 32.0556C22.387 32.0556 21.5874 32.828 21.5874 33.9869C21.5874 35.1457 22.3868 35.9182 23.5462 35.9182C24.1058 35.9182 24.6656 35.7637 25.1053 35.4162L24.7055 34.8367C24.3857 35.0685 23.986 35.223 23.5863 35.223C23.0666 35.223 22.5469 34.9912 22.4269 34.3344H25.2652V34.0256C25.3053 32.828 24.5856 32.0556 23.5062 32.0556H23.5063ZM23.5063 32.7508C24.0259 32.7508 24.3859 33.06 24.4656 33.6394H22.4669C22.5469 33.1372 22.9067 32.7508 23.5063 32.7508ZM44.3333 33.9869V30.665H43.4939V32.5963C43.214 32.2488 42.8143 32.0556 42.2946 32.0556C41.2153 32.0556 40.3758 32.8668 40.3758 33.9869C40.3758 35.107 41.2153 35.9182 42.2946 35.9182C42.8543 35.9182 43.254 35.7251 43.4939 35.3774V35.8409H44.3333V33.9869ZM41.2553 33.9869C41.2553 33.3302 41.6949 32.7895 42.4146 32.7895C43.0942 32.7895 43.5738 33.2917 43.5738 33.9869C43.5738 34.6435 43.0942 35.1843 42.4146 35.1843C41.6949 35.1455 41.2553 34.6435 41.2553 33.9869ZM13.1926 33.9869V32.1328H12.3531V32.5963C12.0733 32.2488 11.6735 32.0556 11.1538 32.0556C10.0745 32.0556 9.23506 32.8668 9.23506 33.9869C9.23506 35.107 10.0745 35.9182 11.1538 35.9182C11.7136 35.9182 12.1133 35.7251 12.3531 35.3774V35.8409H13.1926V33.9869ZM10.0745 33.9869C10.0745 33.3302 10.5143 32.7895 11.2338 32.7895C11.9134 32.7895 12.3932 33.2917 12.3932 33.9869C12.3932 34.6435 11.9134 35.1843 11.2338 35.1843C10.5143 35.1455 10.0745 34.6435 10.0745 33.9869Z" fill="white"/>
<path d="M17.7891 13.9055C17.7891 9.46353 19.9477 5.52356 23.2655 2.97416C20.8272 1.12013 17.7492 0 14.3913 0C6.43592 0 0 6.21876 0 13.9055C0 21.5921 6.43592 27.811 14.3911 27.811C17.749 27.811 20.827 26.6909 23.2655 24.8367C19.9477 22.326 17.7891 18.3475 17.7891 13.9055Z" fill="#EB001B"/>
<path d="M46.5702 13.9055C46.5702 21.5921 40.1343 27.811 32.1791 27.811C28.8212 27.811 25.7432 26.6909 23.3047 24.8367C26.6626 22.2874 28.7813 18.3475 28.7813 13.9055C28.7813 9.46353 26.6225 5.52356 23.3047 2.97416C25.743 1.12013 28.8212 0 32.1791 0C40.1343 0 46.5704 6.25747 46.5704 13.9055H46.5702Z" fill="#F79E1B"/>
</svg>
