<svg width="36" height="40" viewBox="0 0 36 40" fill="none" xmlns="http://www.w3.org/2000/svg">
<path d="M22.2793 35.4378C21.6382 36.8517 21.2191 38.3888 21.0547 40L34.567 37.1229C35.2081 35.709 35.6272 34.1719 35.7916 32.5607L22.2793 35.4378Z" fill="#2AB479"/>
<path d="M34.5594 28.5241C35.2005 27.1103 35.6196 25.5731 35.784 23.9619L25.2559 26.1978V21.8904L34.5594 19.9094C35.2005 18.4955 35.6196 16.9583 35.784 15.3471L25.2559 17.583V2.10438C23.6451 3.0086 22.2068 4.21697 21.048 5.63907V18.479L16.84 19.375V0C15.2292 0.904223 13.7909 2.11259 12.6321 3.53469V20.271L3.21349 22.2768C2.57244 23.6907 2.15329 25.2278 1.98891 26.839L12.6321 24.5784V30.0038L1.22458 32.4287C0.583526 33.8426 0.164373 35.3798 0 36.991L11.9417 34.4509C12.9115 34.2454 13.7498 33.67 14.2922 32.8809L16.4784 29.6339C16.7085 29.2968 16.84 28.894 16.84 28.4584V23.6824L21.048 22.7864V31.393L34.5594 28.5159V28.5241Z" fill="#2AB479"/>
</svg>
